<svg width="76" height="86" viewBox="0 0 76 86" fill="none" xmlns="http://www.w3.org/2000/svg">
<path d="M7.5 30.8926V77.3926C7.5 80.7063 10.1863 83.3926 13.5 83.3926H55" stroke="#FFAC30" stroke-linecap="round"/>
<path d="M0.5 35.9937L37.5 7.99365L75.3018 35.9937" stroke="#FFAC30" stroke-linecap="round" stroke-linejoin="round"/>
<circle cx="37" cy="50.8926" r="17" stroke="#FFAC30"/>
<path fill-rule="evenodd" clip-rule="evenodd" d="M37 62.3926C43.3513 62.3926 48.5 57.2439 48.5 50.8926C48.5 44.5413 43.3513 39.3926 37 39.3926C30.6487 39.3926 25.5 44.5413 25.5 50.8926C25.5 57.2439 30.6487 62.3926 37 62.3926ZM43.3433 47.2561C43.5441 47.0665 43.5531 46.75 43.3635 46.5493C43.1739 46.3485 42.8574 46.3395 42.6567 46.5291L34.5294 54.2048L31.3433 51.1957C31.1426 51.0061 30.8261 51.0152 30.6365 51.2159C30.4469 51.4167 30.4559 51.7331 30.6567 51.9228L34.5294 55.5803L43.3433 47.2561Z" fill="#FFAC30"/>
<path d="M67.7396 75.9751C69.3017 77.5372 69.3017 80.0698 67.7396 81.6319C66.1775 83.194 63.6449 83.194 62.0828 81.6319L46.2074 65.7565L51.8643 60.0997L67.7396 75.9751Z" stroke="#FFAC30"/>
<line x1="67" y1="29.8926" x2="67" y2="67.8926" stroke="#FFAC30" stroke-linecap="round"/>
</svg>
