<svg width="75" height="87" viewBox="0 0 75 87" fill="none" xmlns="http://www.w3.org/2000/svg">
<path d="M9 26.5H6.5C3.18629 26.5 0.5 23.8137 0.5 20.5V6.5C0.5 3.18629 3.18629 0.5 6.5 0.5H60.5C63.8137 0.5 66.5 3.18629 66.5 6.5V20.5C66.5 23.8137 63.8137 26.5 60.5 26.5H34" stroke="#FFAC30"/>
<rect x="46" y="49" width="37" height="18" rx="5.5" transform="rotate(90 46 49)" stroke="#FFAC30"/>
<path d="M9.5 1V42.5C9.5 46.366 12.634 49.5 16.5 49.5C20.366 49.5 23.5 46.366 23.5 42.5V23" stroke="#FFAC30"/>
<path d="M33.5 1V33.5C33.5 36.2614 31.2614 38.5 28.5 38.5C25.7386 38.5 23.5 36.2614 23.5 33.5V20.4691" stroke="#FFAC30"/>
<path d="M66 13.5H74.5C74.5 16.8333 74.5 24.4 74.5 28C74.5 32.5 72 33.5 67 35C62 36.5 46.5 41 43 42C39.5 43 37 44.5 37 49" stroke="#FFAC30"/>
<rect x="27.5" y="56.5" width="19" height="8" fill="#FFAC30"/>
</svg>
