<svg width="691" height="385" viewBox="0 0 691 385" fill="none" xmlns="http://www.w3.org/2000/svg">
<line x1="25.1279" y1="0.433198" x2="194.313" y2="98.1124" stroke="white"/>
<line x1="532.004" y1="292.645" x2="690.089" y2="383.916" stroke="white"/>
<path d="M11.3203 200.655V189.28H15.0391C16.2734 189.28 17.2005 189.535 17.8203 190.046C18.4453 190.556 18.7578 191.312 18.7578 192.312C18.7578 192.843 18.6068 193.314 18.3047 193.726C18.0026 194.132 17.5911 194.447 17.0703 194.671C17.6849 194.843 18.1693 195.171 18.5234 195.655C18.8828 196.134 19.0625 196.707 19.0625 197.374C19.0625 198.395 18.7318 199.197 18.0703 199.78C17.4089 200.364 16.474 200.655 15.2656 200.655H11.3203ZM12.8203 195.335V199.429H15.2969C15.9948 199.429 16.5443 199.249 16.9453 198.89C17.3516 198.525 17.5547 198.025 17.5547 197.39C17.5547 196.02 16.8099 195.335 15.3203 195.335H12.8203ZM12.8203 194.132H15.0859C15.7422 194.132 16.2656 193.968 16.6562 193.64C17.0521 193.312 17.25 192.866 17.25 192.304C17.25 191.679 17.0677 191.226 16.7031 190.944C16.3385 190.658 15.7839 190.515 15.0391 190.515H12.8203V194.132ZM35.8103 197.687H31.0447L29.9744 200.655H28.4275L32.7712 189.28H34.0837L38.4353 200.655H36.8962L35.8103 197.687ZM31.4978 196.452H35.365L33.4275 191.132L31.4978 196.452ZM49.7691 189.28V199.429H53.6831V189.28H55.1753V199.429H59.0659V189.28H60.5659V200.655H48.2612V189.28H49.7691ZM92.4053 200.655H90.8975V190.515H85.2881V200.655H83.7881V189.28H92.4053V200.655ZM109.809 195.397H104.88V199.429H110.606V200.655H103.38V189.28H110.528V190.515H104.88V194.171H109.809V195.397ZM122.213 196.202V200.655H120.713V189.28H124.909C126.154 189.28 127.128 189.598 127.831 190.233C128.539 190.869 128.893 191.71 128.893 192.757C128.893 193.861 128.547 194.713 127.854 195.312C127.167 195.905 126.18 196.202 124.893 196.202H122.213ZM122.213 194.976H124.909C125.711 194.976 126.325 194.788 126.753 194.413C127.18 194.033 127.393 193.486 127.393 192.772C127.393 192.095 127.18 191.554 126.753 191.147C126.325 190.741 125.739 190.53 124.995 190.515H122.213V194.976ZM147.414 197.046C147.274 198.249 146.828 199.179 146.078 199.835C145.334 200.486 144.341 200.812 143.102 200.812C141.758 200.812 140.68 200.33 139.868 199.366C139.06 198.403 138.657 197.114 138.657 195.499V194.405C138.657 193.348 138.844 192.418 139.219 191.616C139.599 190.814 140.136 190.2 140.828 189.772C141.521 189.34 142.323 189.124 143.235 189.124C144.443 189.124 145.412 189.463 146.141 190.14C146.87 190.812 147.295 191.744 147.414 192.937H145.907C145.776 192.03 145.493 191.374 145.055 190.968C144.623 190.562 144.016 190.358 143.235 190.358C142.276 190.358 141.524 190.713 140.977 191.421C140.435 192.129 140.164 193.137 140.164 194.444V195.546C140.164 196.78 140.422 197.762 140.938 198.491C141.453 199.22 142.175 199.585 143.102 199.585C143.935 199.585 144.573 199.397 145.016 199.022C145.464 198.642 145.761 197.983 145.907 197.046H147.414ZM166.459 195.335C166.459 196.45 166.272 197.424 165.897 198.257C165.522 199.085 164.99 199.718 164.303 200.155C163.615 200.593 162.813 200.812 161.897 200.812C161.001 200.812 160.206 200.593 159.514 200.155C158.821 199.713 158.282 199.085 157.897 198.272C157.516 197.455 157.321 196.509 157.311 195.437V194.616C157.311 193.522 157.501 192.556 157.881 191.718C158.261 190.879 158.798 190.239 159.49 189.796C160.188 189.348 160.985 189.124 161.881 189.124C162.792 189.124 163.594 189.345 164.287 189.788C164.985 190.226 165.522 190.864 165.897 191.702C166.272 192.535 166.459 193.507 166.459 194.616V195.335ZM164.967 194.601C164.967 193.252 164.696 192.218 164.154 191.499C163.613 190.775 162.855 190.413 161.881 190.413C160.933 190.413 160.186 190.775 159.639 191.499C159.097 192.218 158.818 193.218 158.803 194.499V195.335C158.803 196.642 159.076 197.671 159.623 198.421C160.175 199.166 160.933 199.538 161.897 199.538C162.865 199.538 163.615 199.187 164.147 198.483C164.678 197.775 164.951 196.762 164.967 195.444V194.601ZM185.691 200.655H184.183V195.397H178.449V200.655H176.949V189.28H178.449V194.171H184.183V189.28H185.691V200.655ZM203.017 197.687H198.252L197.181 200.655H195.634L199.978 189.28H201.291L205.642 200.655H204.103L203.017 197.687ZM198.705 196.452H202.572L200.634 191.132L198.705 196.452ZM224.156 189.28V200.655H222.656V190.515H218.577L218.374 195.022C218.296 196.533 218.14 197.668 217.906 198.429C217.676 199.189 217.338 199.749 216.89 200.108C216.442 200.463 215.843 200.645 215.093 200.655H214.601V199.429L214.913 199.413C215.398 199.377 215.77 199.22 216.031 198.944C216.291 198.663 216.489 198.218 216.624 197.608C216.76 196.999 216.856 196.062 216.913 194.796L217.148 189.28H224.156ZM236.575 193.921H239.403C240.591 193.937 241.518 194.241 242.185 194.835C242.851 195.429 243.185 196.236 243.185 197.257C243.185 198.283 242.849 199.101 242.177 199.71C241.505 200.319 240.588 200.634 239.427 200.655H235.075V189.28H236.575V193.921ZM236.575 195.155V199.429H239.318C240.062 199.429 240.64 199.231 241.052 198.835C241.469 198.439 241.677 197.908 241.677 197.241C241.677 196.601 241.476 196.095 241.075 195.726C240.679 195.356 240.114 195.166 239.38 195.155H236.575ZM262.151 200.655H260.643V195.397H254.909V200.655H253.409V189.28H254.909V194.171H260.643V189.28H262.151V200.655ZM274.626 193.921H277.454C278.641 193.937 279.568 194.241 280.235 194.835C280.902 195.429 281.235 196.236 281.235 197.257C281.235 198.283 280.899 199.101 280.227 199.71C279.555 200.319 278.639 200.634 277.477 200.655H273.126V189.28H274.626V193.921ZM274.626 195.155V199.429H277.368C278.113 199.429 278.691 199.231 279.102 198.835C279.519 198.439 279.727 197.908 279.727 197.241C279.727 196.601 279.527 196.095 279.126 195.726C278.73 195.356 278.165 195.166 277.43 195.155H274.626ZM284.11 200.655H282.61V189.28H284.11V200.655ZM302.311 189.28H303.811V200.655H302.311V191.89L296.709 200.655H295.202V189.28H296.709V198.046L302.311 189.28ZM301.889 186.452C301.889 187.082 301.673 187.59 301.241 187.976C300.814 188.356 300.251 188.546 299.553 188.546C298.855 188.546 298.29 188.353 297.858 187.968C297.426 187.582 297.209 187.077 297.209 186.452H298.389C298.389 186.817 298.488 187.103 298.686 187.312C298.884 187.515 299.173 187.616 299.553 187.616C299.918 187.616 300.202 187.515 300.405 187.312C300.613 187.108 300.717 186.822 300.717 186.452H301.889Z" fill="white"/>
<mask id="mask0_843_1678" style="mask-type:alpha" maskUnits="userSpaceOnUse" x="283" y="149" width="375" height="147">
<path d="M283.5 149.655H657.5V295.155H535.5L283.5 149.655Z" fill="#C4C4C4"/>
</mask>
<g mask="url(#mask0_843_1678)">
<path d="M270.031 282.655H260.422V253.874H213.453V244.265H260.422V215.437H270.031V282.655ZM208.672 282.655H199.062V215.437H208.672V282.655ZM366.406 249.046C366.406 253.702 365.672 258.077 364.203 262.171C362.734 266.265 360.641 269.827 357.922 272.858C355.234 275.89 352 278.28 348.219 280.03C344.438 281.78 340.234 282.655 335.609 282.655H313.25C308.594 282.655 304.359 281.78 300.547 280.03C296.734 278.28 293.469 275.89 290.75 272.858C288.062 269.827 285.984 266.265 284.516 262.171C283.047 258.077 282.312 253.702 282.312 249.046C282.312 244.421 283.047 240.077 284.516 236.015C285.984 231.921 288.062 228.358 290.75 225.327C293.469 222.265 296.734 219.858 300.547 218.108C304.359 216.327 308.594 215.437 313.25 215.437H335.609C340.234 215.437 344.438 216.327 348.219 218.108C352 219.858 355.234 222.265 357.922 225.327C360.641 228.358 362.734 231.921 364.203 236.015C365.672 240.077 366.406 244.421 366.406 249.046ZM356.797 249.046C356.797 245.733 356.312 242.624 355.344 239.718C354.375 236.812 352.969 234.28 351.125 232.124C349.312 229.937 347.094 228.218 344.469 226.968C341.875 225.687 338.922 225.046 335.609 225.046H313.25C309.938 225.046 306.953 225.687 304.297 226.968C301.672 228.218 299.438 229.937 297.594 232.124C295.781 234.28 294.375 236.812 293.375 239.718C292.406 242.624 291.922 245.733 291.922 249.046C291.922 252.358 292.406 255.483 293.375 258.421C294.375 261.327 295.781 263.874 297.594 266.062C299.438 268.218 301.672 269.921 304.297 271.171C306.953 272.421 309.938 273.046 313.25 273.046H335.609C338.922 273.046 341.875 272.421 344.469 271.171C347.094 269.921 349.312 268.218 351.125 266.062C352.969 263.874 354.375 261.327 355.344 258.421C356.312 255.483 356.797 252.358 356.797 249.046ZM450.688 215.437L450.594 249.046C450.594 252.171 450.188 255.171 449.375 258.046C448.594 260.89 447.469 263.562 446 266.062C444.562 268.53 442.812 270.796 440.75 272.858C438.719 274.89 436.453 276.64 433.953 278.108C431.484 279.546 428.828 280.671 425.984 281.483C423.141 282.265 420.172 282.655 417.078 282.655H410C406.906 282.655 403.922 282.265 401.047 281.483C398.203 280.671 395.531 279.53 393.031 278.062C390.562 276.593 388.312 274.843 386.281 272.812C384.25 270.749 382.5 268.483 381.031 266.015C379.594 263.515 378.469 260.843 377.656 257.999C376.875 255.124 376.484 252.14 376.484 249.046V215.437H386.094V249.046C386.094 252.358 386.719 255.483 387.969 258.421C389.219 261.327 390.922 263.874 393.078 266.062C395.266 268.218 397.812 269.921 400.719 271.171C403.625 272.421 406.719 273.046 410 273.046H417.078C420.391 273.046 423.5 272.421 426.406 271.171C429.312 269.921 431.844 268.218 434 266.062C436.156 263.874 437.859 261.327 439.109 258.421C440.359 255.483 440.984 252.358 440.984 249.046V215.437H450.594H450.688ZM538.766 263.437C538.766 266.124 538.266 268.64 537.266 270.983C536.266 273.296 534.891 275.327 533.141 277.077C531.422 278.796 529.391 280.155 527.047 281.155C524.734 282.155 522.25 282.655 519.594 282.655H461.188V273.046H519.594C520.938 273.046 522.188 272.796 523.344 272.296C524.5 271.796 525.5 271.108 526.344 270.233C527.219 269.358 527.906 268.343 528.406 267.187C528.906 265.999 529.156 264.749 529.156 263.437C529.156 262.124 528.906 260.89 528.406 259.733C527.906 258.577 527.219 257.562 526.344 256.687C525.5 255.812 524.5 255.124 523.344 254.624C522.188 254.124 520.938 253.874 519.594 253.874H480.406C477.781 253.874 475.297 253.374 472.953 252.374C470.609 251.374 468.562 250.015 466.812 248.296C465.094 246.546 463.719 244.499 462.688 242.155C461.688 239.812 461.188 237.312 461.188 234.655C461.188 232.03 461.688 229.546 462.688 227.202C463.719 224.858 465.094 222.827 466.812 221.108C468.562 219.358 470.609 217.983 472.953 216.983C475.297 215.952 477.781 215.437 480.406 215.437H533.984V225.046H480.406C479.094 225.046 477.844 225.296 476.656 225.796C475.5 226.296 474.484 226.983 473.609 227.858C472.734 228.733 472.047 229.765 471.547 230.952C471.047 232.108 470.797 233.343 470.797 234.655C470.797 235.968 471.047 237.218 471.547 238.405C472.047 239.562 472.734 240.577 473.609 241.452C474.484 242.327 475.5 243.015 476.656 243.515C477.844 244.015 479.094 244.265 480.406 244.265H519.594C522.25 244.265 524.734 244.78 527.047 245.812C529.391 246.812 531.422 248.187 533.141 249.937C534.891 251.655 536.266 253.687 537.266 256.03C538.266 258.343 538.766 260.812 538.766 263.437ZM619.578 282.655H550.062V215.437H619.578V225.046H559.672V273.046H619.578V282.655ZM611.422 253.874H564.453V244.265H611.422V253.874Z" fill="white"/>
</g>
<mask id="mask1_843_1678" style="mask-type:alpha" maskUnits="userSpaceOnUse" x="185" y="187" width="393" height="147">
<path d="M577.5 333.155L185 333.155V187.655H325L577.5 333.155Z" fill="#C4C4C4"/>
</mask>
<g mask="url(#mask1_843_1678)">
<path d="M270.031 282.655H260.422V253.874H213.453V244.265H260.422V215.437H270.031V282.655ZM208.672 282.655H199.062V215.437H208.672V282.655ZM366.406 249.046C366.406 253.702 365.672 258.077 364.203 262.171C362.734 266.265 360.641 269.827 357.922 272.858C355.234 275.89 352 278.28 348.219 280.03C344.438 281.78 340.234 282.655 335.609 282.655H313.25C308.594 282.655 304.359 281.78 300.547 280.03C296.734 278.28 293.469 275.89 290.75 272.858C288.062 269.827 285.984 266.265 284.516 262.171C283.047 258.077 282.312 253.702 282.312 249.046C282.312 244.421 283.047 240.077 284.516 236.015C285.984 231.921 288.062 228.358 290.75 225.327C293.469 222.265 296.734 219.858 300.547 218.108C304.359 216.327 308.594 215.437 313.25 215.437H335.609C340.234 215.437 344.438 216.327 348.219 218.108C352 219.858 355.234 222.265 357.922 225.327C360.641 228.358 362.734 231.921 364.203 236.015C365.672 240.077 366.406 244.421 366.406 249.046ZM356.797 249.046C356.797 245.733 356.312 242.624 355.344 239.718C354.375 236.812 352.969 234.28 351.125 232.124C349.312 229.937 347.094 228.218 344.469 226.968C341.875 225.687 338.922 225.046 335.609 225.046H313.25C309.938 225.046 306.953 225.687 304.297 226.968C301.672 228.218 299.438 229.937 297.594 232.124C295.781 234.28 294.375 236.812 293.375 239.718C292.406 242.624 291.922 245.733 291.922 249.046C291.922 252.358 292.406 255.483 293.375 258.421C294.375 261.327 295.781 263.874 297.594 266.062C299.438 268.218 301.672 269.921 304.297 271.171C306.953 272.421 309.938 273.046 313.25 273.046H335.609C338.922 273.046 341.875 272.421 344.469 271.171C347.094 269.921 349.312 268.218 351.125 266.062C352.969 263.874 354.375 261.327 355.344 258.421C356.312 255.483 356.797 252.358 356.797 249.046ZM450.688 215.437L450.594 249.046C450.594 252.171 450.188 255.171 449.375 258.046C448.594 260.89 447.469 263.562 446 266.062C444.562 268.53 442.812 270.796 440.75 272.858C438.719 274.89 436.453 276.64 433.953 278.108C431.484 279.546 428.828 280.671 425.984 281.483C423.141 282.265 420.172 282.655 417.078 282.655H410C406.906 282.655 403.922 282.265 401.047 281.483C398.203 280.671 395.531 279.53 393.031 278.062C390.562 276.593 388.312 274.843 386.281 272.812C384.25 270.749 382.5 268.483 381.031 266.015C379.594 263.515 378.469 260.843 377.656 257.999C376.875 255.124 376.484 252.14 376.484 249.046V215.437H386.094V249.046C386.094 252.358 386.719 255.483 387.969 258.421C389.219 261.327 390.922 263.874 393.078 266.062C395.266 268.218 397.812 269.921 400.719 271.171C403.625 272.421 406.719 273.046 410 273.046H417.078C420.391 273.046 423.5 272.421 426.406 271.171C429.312 269.921 431.844 268.218 434 266.062C436.156 263.874 437.859 261.327 439.109 258.421C440.359 255.483 440.984 252.358 440.984 249.046V215.437H450.594H450.688ZM538.766 263.437C538.766 266.124 538.266 268.64 537.266 270.983C536.266 273.296 534.891 275.327 533.141 277.077C531.422 278.796 529.391 280.155 527.047 281.155C524.734 282.155 522.25 282.655 519.594 282.655H461.188V273.046H519.594C520.938 273.046 522.188 272.796 523.344 272.296C524.5 271.796 525.5 271.108 526.344 270.233C527.219 269.358 527.906 268.343 528.406 267.187C528.906 265.999 529.156 264.749 529.156 263.437C529.156 262.124 528.906 260.89 528.406 259.733C527.906 258.577 527.219 257.562 526.344 256.687C525.5 255.812 524.5 255.124 523.344 254.624C522.188 254.124 520.938 253.874 519.594 253.874H480.406C477.781 253.874 475.297 253.374 472.953 252.374C470.609 251.374 468.562 250.015 466.812 248.296C465.094 246.546 463.719 244.499 462.688 242.155C461.688 239.812 461.188 237.312 461.188 234.655C461.188 232.03 461.688 229.546 462.688 227.202C463.719 224.858 465.094 222.827 466.812 221.108C468.562 219.358 470.609 217.983 472.953 216.983C475.297 215.952 477.781 215.437 480.406 215.437H533.984V225.046H480.406C479.094 225.046 477.844 225.296 476.656 225.796C475.5 226.296 474.484 226.983 473.609 227.858C472.734 228.733 472.047 229.765 471.547 230.952C471.047 232.108 470.797 233.343 470.797 234.655C470.797 235.968 471.047 237.218 471.547 238.405C472.047 239.562 472.734 240.577 473.609 241.452C474.484 242.327 475.5 243.015 476.656 243.515C477.844 244.015 479.094 244.265 480.406 244.265H519.594C522.25 244.265 524.734 244.78 527.047 245.812C529.391 246.812 531.422 248.187 533.141 249.937C534.891 251.655 536.266 253.687 537.266 256.03C538.266 258.343 538.766 260.812 538.766 263.437ZM619.578 282.655H550.062V215.437H619.578V225.046H559.672V273.046H619.578V282.655ZM611.422 253.874H564.453V244.265H611.422V253.874Z" fill="white"/>
</g>
<mask id="mask2_843_1678" style="mask-type:alpha" maskUnits="userSpaceOnUse" x="0" y="84" width="399" height="147">
<path d="M398.5 230.155L0 230.155V84.6553H146L398.5 230.155Z" fill="#C4C4C4"/>
</mask>
<g mask="url(#mask2_843_1678)">
<path d="M91.2812 141.046C91.2812 145.702 90.5312 150.077 89.0312 154.171C87.5625 158.265 85.4688 161.827 82.75 164.858C80.0312 167.89 76.7656 170.28 72.9531 172.03C69.1719 173.78 64.9688 174.655 60.3438 174.655H26.4531V165.046H60.3438C63.6562 165.046 66.625 164.421 69.25 163.171C71.9062 161.921 74.1406 160.218 75.9531 158.062C77.7969 155.874 79.2031 153.327 80.1719 150.421C81.1719 147.483 81.6719 144.358 81.6719 141.046C81.6719 137.733 81.1719 134.624 80.1719 131.718C79.2031 128.812 77.7969 126.28 75.9531 124.124C74.1406 121.937 71.9062 120.218 69.25 118.968C66.625 117.687 63.6562 117.046 60.3438 117.046H21.6719V174.655H12.0625V107.437H60.3438C64.9688 107.437 69.1719 108.327 72.9531 110.108C76.7656 111.858 80.0312 114.265 82.75 117.327C85.4688 120.358 87.5625 123.921 89.0312 128.015C90.5312 132.077 91.2812 136.421 91.2812 141.046ZM181.141 174.655H168.156L148 155.437H118.562V145.968H157.141C159.141 145.968 161.016 145.593 162.766 144.843C164.516 144.062 166.031 143.015 167.312 141.702C168.625 140.39 169.656 138.858 170.406 137.108C171.156 135.327 171.531 133.437 171.531 131.437C171.531 129.437 171.156 127.562 170.406 125.812C169.656 124.062 168.625 122.546 167.312 121.265C166.031 119.952 164.516 118.921 162.766 118.171C161.016 117.421 159.141 117.046 157.141 117.046H113.172V174.655H103.562V107.437H157.141C160.453 107.437 163.562 108.077 166.469 109.358C169.375 110.608 171.906 112.327 174.062 114.515C176.25 116.671 177.969 119.202 179.219 122.108C180.5 125.015 181.141 128.124 181.141 131.437C181.141 134.437 180.625 137.28 179.594 139.968C178.562 142.624 177.141 145.015 175.328 147.14C173.516 149.233 171.375 150.983 168.906 152.39C166.469 153.765 163.828 154.687 160.984 155.155L181.141 174.655ZM262.984 174.655H193.469V107.437H262.984V117.046H203.078V165.046H262.984V174.655ZM254.828 145.874H207.859V136.265H254.828V145.874ZM351.344 174.655H341.734V155.437H288.109V145.874H341.734V117.046H307.281C304 117.046 300.906 117.687 298 118.968C295.094 120.218 292.562 121.937 290.406 124.124C288.25 126.28 286.531 128.812 285.25 131.718C284 134.624 283.375 137.733 283.375 141.046V174.655H273.766V141.046C273.766 137.952 274.156 134.983 274.938 132.14C275.75 129.265 276.875 126.593 278.312 124.124C279.781 121.624 281.531 119.358 283.562 117.327C285.625 115.265 287.891 113.499 290.359 112.03C292.859 110.562 295.531 109.437 298.375 108.655C301.219 107.843 304.188 107.437 307.281 107.437H351.344V174.655ZM415.844 174.655H406.234V141.046C406.234 137.733 405.609 134.624 404.359 131.718C403.109 128.812 401.391 126.28 399.203 124.124C397.047 121.937 394.5 120.218 391.562 118.968C388.656 117.687 385.547 117.046 382.234 117.046H377.078V174.655H367.469V107.437H382.234C385.297 107.437 388.234 107.843 391.047 108.655C393.891 109.437 396.547 110.546 399.016 111.983C401.484 113.421 403.734 115.14 405.766 117.14C407.797 119.14 409.562 121.358 411.062 123.796C412.531 121.358 414.281 119.14 416.312 117.14C418.344 115.14 420.594 113.421 423.062 111.983C425.531 110.546 428.172 109.437 430.984 108.655C433.828 107.843 436.781 107.437 439.844 107.437H454.656V174.655H445.047V117.046H439.844C436.531 117.046 433.422 117.687 430.516 118.968C427.609 120.218 425.062 121.937 422.875 124.124C420.719 126.28 419 128.812 417.719 131.718C416.469 134.624 415.844 137.733 415.844 141.046V174.655Z" fill="white"/>
</g>
<mask id="mask3_843_1678" style="mask-type:alpha" maskUnits="userSpaceOnUse" x="147" y="70" width="367" height="147">
<path d="M147 70.6553H514V216.155H398.5L147 70.6553Z" fill="#C4C4C4"/>
</mask>
<g mask="url(#mask3_843_1678)">
<path d="M91.2812 141.046C91.2812 145.702 90.5312 150.077 89.0312 154.171C87.5625 158.265 85.4688 161.827 82.75 164.858C80.0312 167.89 76.7656 170.28 72.9531 172.03C69.1719 173.78 64.9688 174.655 60.3438 174.655H26.4531V165.046H60.3438C63.6562 165.046 66.625 164.421 69.25 163.171C71.9062 161.921 74.1406 160.218 75.9531 158.062C77.7969 155.874 79.2031 153.327 80.1719 150.421C81.1719 147.483 81.6719 144.358 81.6719 141.046C81.6719 137.733 81.1719 134.624 80.1719 131.718C79.2031 128.812 77.7969 126.28 75.9531 124.124C74.1406 121.937 71.9062 120.218 69.25 118.968C66.625 117.687 63.6562 117.046 60.3438 117.046H21.6719V174.655H12.0625V107.437H60.3438C64.9688 107.437 69.1719 108.327 72.9531 110.108C76.7656 111.858 80.0312 114.265 82.75 117.327C85.4688 120.358 87.5625 123.921 89.0312 128.015C90.5312 132.077 91.2812 136.421 91.2812 141.046ZM181.141 174.655H168.156L148 155.437H118.562V145.968H157.141C159.141 145.968 161.016 145.593 162.766 144.843C164.516 144.062 166.031 143.015 167.312 141.702C168.625 140.39 169.656 138.858 170.406 137.108C171.156 135.327 171.531 133.437 171.531 131.437C171.531 129.437 171.156 127.562 170.406 125.812C169.656 124.062 168.625 122.546 167.312 121.265C166.031 119.952 164.516 118.921 162.766 118.171C161.016 117.421 159.141 117.046 157.141 117.046H113.172V174.655H103.562V107.437H157.141C160.453 107.437 163.562 108.077 166.469 109.358C169.375 110.608 171.906 112.327 174.062 114.515C176.25 116.671 177.969 119.202 179.219 122.108C180.5 125.015 181.141 128.124 181.141 131.437C181.141 134.437 180.625 137.28 179.594 139.968C178.562 142.624 177.141 145.015 175.328 147.14C173.516 149.233 171.375 150.983 168.906 152.39C166.469 153.765 163.828 154.687 160.984 155.155L181.141 174.655ZM262.984 174.655H193.469V107.437H262.984V117.046H203.078V165.046H262.984V174.655ZM254.828 145.874H207.859V136.265H254.828V145.874ZM351.344 174.655H341.734V155.437H288.109V145.874H341.734V117.046H307.281C304 117.046 300.906 117.687 298 118.968C295.094 120.218 292.562 121.937 290.406 124.124C288.25 126.28 286.531 128.812 285.25 131.718C284 134.624 283.375 137.733 283.375 141.046V174.655H273.766V141.046C273.766 137.952 274.156 134.983 274.938 132.14C275.75 129.265 276.875 126.593 278.312 124.124C279.781 121.624 281.531 119.358 283.562 117.327C285.625 115.265 287.891 113.499 290.359 112.03C292.859 110.562 295.531 109.437 298.375 108.655C301.219 107.843 304.188 107.437 307.281 107.437H351.344V174.655ZM415.844 174.655H406.234V141.046C406.234 137.733 405.609 134.624 404.359 131.718C403.109 128.812 401.391 126.28 399.203 124.124C397.047 121.937 394.5 120.218 391.562 118.968C388.656 117.687 385.547 117.046 382.234 117.046H377.078V174.655H367.469V107.437H382.234C385.297 107.437 388.234 107.843 391.047 108.655C393.891 109.437 396.547 110.546 399.016 111.983C401.484 113.421 403.734 115.14 405.766 117.14C407.797 119.14 409.562 121.358 411.062 123.796C412.531 121.358 414.281 119.14 416.312 117.14C418.344 115.14 420.594 113.421 423.062 111.983C425.531 110.546 428.172 109.437 430.984 108.655C433.828 107.843 436.781 107.437 439.844 107.437H454.656V174.655H445.047V117.046H439.844C436.531 117.046 433.422 117.687 430.516 118.968C427.609 120.218 425.062 121.937 422.875 124.124C420.719 126.28 419 128.812 417.719 131.718C416.469 134.624 415.844 137.733 415.844 141.046V174.655Z" fill="white"/>
</g>
</svg>
